<svg xmlns="http://www.w3.org/2000/svg" width="24" height="24" viewBox="0 0 24 24">
    <defs>
        <filter id="sskkb11k4a">
            <feColorMatrix in="SourceGraphic" values="0 0 0 0 0.078431 0 0 0 0 0.078431 0 0 0 0 0.082353 0 0 0 1.000000 0"/>
        </filter>
    </defs>
    <g fill="none" fill-rule="evenodd">
        <g filter="url(#sskkb11k4a)" transform="translate(-1159 -33)">
            <g>
                <path fill="#000" d="M12 0c6.627 0 12 5.373 12 12s-5.373 12-12 12S0 18.627 0 12 5.373 0 12 0zm.685 5.6h-1.37c-1.128.003-1.373.012-1.953.039-.682.03-1.147.139-1.554.297-.42.163-.778.382-1.133.738-.356.356-.575.713-.74 1.134-.158.407-.266.872-.296 1.553-.026.58-.036.825-.038 1.953v1.372c.002 1.128.011 1.372.038 1.952.031.682.139 1.147.297 1.554.164.42.382.778.738 1.133.356.356.713.576 1.133.74.408.157.873.265 1.554.296.546.025.795.035 1.763.038h.398l.228.001h1.126c.968-.004 1.216-.014 1.762-.039.682-.03 1.147-.139 1.554-.297.421-.163.778-.383 1.133-.739.356-.355.575-.712.739-1.133.157-.407.265-.872.297-1.554.006-.136.012-.254.016-.37l.006-.172c.01-.32.015-.68.016-1.41v-.436L18.4 12V11.314c-.003-1.128-.013-1.373-.039-1.953-.032-.681-.14-1.146-.297-1.553-.164-.421-.383-.778-.739-1.134-.356-.356-.712-.575-1.133-.738-.408-.158-.873-.266-1.555-.297-.58-.027-.824-.036-1.952-.038zm-1.259 1.152v.001h1.044c1.285.002 1.51.01 2.117.037.624.029.962.133 1.188.22.299.117.512.255.736.48.224.223.362.437.478.735.088.226.192.564.22 1.188.025.54.035.778.037 1.726l.001.39V12.858c-.003.949-.013 1.186-.037 1.726-.029.624-.133.963-.22 1.188-.117.299-.255.511-.48.735-.223.224-.436.363-.735.479-.225.088-.564.192-1.188.22-.54.025-.778.034-1.726.037h-1.72c-.95-.003-1.187-.012-1.727-.037-.624-.028-.962-.133-1.188-.22-.299-.116-.512-.255-.736-.479-.224-.224-.363-.437-.479-.736-.088-.225-.192-.564-.22-1.188-.025-.54-.034-.777-.036-1.725v-1.721c.001-.554.005-.865.013-1.135l.007-.226.016-.364c.028-.624.132-.963.22-1.189.116-.298.255-.512.479-.736.224-.224.437-.362.736-.479.226-.088.564-.192 1.188-.22.512-.023.752-.032 1.584-.035l.428-.001zM12 8.713c-1.814 0-3.286 1.472-3.286 3.287s1.472 3.286 3.287 3.286 3.286-1.47 3.286-3.286c0-1.815-1.471-3.287-3.287-3.287zm0 1.154c1.179 0 2.134.955 2.134 2.133s-.955 2.133-2.133 2.133c-1.179 0-2.134-.955-2.134-2.133s.955-2.133 2.134-2.133zm3.417-2.051c-.424 0-.768.344-.768.768 0 .424.344.768.768.768.424 0 .768-.344.768-.768 0-.424-.344-.768-.768-.768z" transform="translate(1159 33)"/>
            </g>
        </g>
    </g>
</svg>
