<svg xmlns="http://www.w3.org/2000/svg" width="48" height="48" viewBox="0 0 48 48">
    <g fill="none" fill-rule="evenodd">
        <g fill="#000">
            <g>
                <g>
                    <g>
                        <path d="M25.704 5.715c2.429.004 3.487.019 4.497.054l.253.01c.337.012.681.028 1.081.046 1.947.089 3.276.397 4.442.85 1.204.466 2.221 1.09 3.238 2.108 1.017 1.016 1.642 2.036 2.11 3.24.45 1.162.759 2.49.85 4.437.023.5.04.913.056 1.334l.008.255c.032 1.028.044 2.214.046 4.88v2.143c-.002 2.665-.014 3.85-.046 4.878l-.008.255c-.015.42-.033.833-.056 1.334-.091 1.945-.4 3.275-.85 4.438-.468 1.202-1.093 2.222-2.11 3.239-1.016 1.017-2.034 1.643-3.237 2.11-1.163.452-2.494.76-4.44.85-1.75.08-2.43.105-6.141.11h-2.795c-2.438-.004-3.568-.016-4.553-.046l-.255-.009c-.42-.014-.834-.033-1.334-.055-1.946-.09-3.275-.398-4.439-.85-1.202-.467-2.222-1.093-3.238-2.11-1.017-1.017-1.641-2.037-2.109-3.24-.452-1.162-.76-2.491-.85-4.438-.076-1.7-.103-2.39-.109-5.83v-3.416c.006-3.44.033-4.132.11-5.832.087-1.946.396-3.275.849-4.438.468-1.203 1.093-2.223 2.11-3.24 1.017-1.016 2.037-1.64 3.24-2.108 1.162-.452 2.491-.76 4.438-.85 1.7-.077 2.392-.103 5.832-.109zm-3.343 3.29c-3.408.004-4.061.027-5.748.103-1.783.082-2.751.379-3.396.63-.853.333-1.463.729-2.103 1.369-.64.64-1.037 1.25-1.368 2.103-.25.644-.548 1.612-.63 3.395l-.035.814-.01.25-.005.124-.008.247c-.031.953-.043 1.99-.046 4.274v3.67c.005 2.256.019 3.224.054 4.209l.01.248c.011.292.024.594.04.94.081 1.783.38 2.75.63 3.395.332.853.728 1.461 1.368 2.101.64.64 1.25 1.036 2.103 1.368.645.25 1.613.548 3.396.63.405.019.751.034 1.09.047l.436.015c.93.03 1.973.04 4.185.044h.96l.232.001H24.719l.96-.001c2.581-.004 3.572-.019 4.647-.06l.25-.01c.254-.01.518-.022.815-.036 1.783-.081 2.751-.378 3.395-.63.854-.331 1.461-.727 2.101-1.367.64-.64 1.037-1.248 1.369-2.1.25-.645.548-1.612.63-3.395.02-.445.036-.818.05-1.189l.008-.247c.03-.912.042-1.902.046-3.983l.001-.596V22.028c-.005-2.081-.017-3.071-.047-3.983l-.008-.247c-.014-.37-.03-.744-.05-1.189-.082-1.783-.38-2.75-.63-3.394-.333-.853-.729-1.463-1.369-2.103-.64-.64-1.248-1.036-2.101-1.368-.645-.25-1.612-.548-3.395-.63l-.94-.04-.249-.01c-1.112-.04-2.203-.052-5.147-.054H22.36zm1.64 5.604l.272.004c5.06.144 9.118 4.292 9.118 9.387 0 5.186-4.203 9.389-9.39 9.389-5.185 0-9.39-4.203-9.39-9.389 0-5.186 4.205-9.39 9.39-9.391zm0 3.296c-3.366 0-6.095 2.729-6.095 6.095 0 3.366 2.73 6.095 6.096 6.095s6.095-2.729 6.095-6.095c0-3.366-2.73-6.095-6.095-6.095zm9.762-5.86c1.211 0 2.194.983 2.194 2.194 0 1.212-.983 2.195-2.194 2.195-1.212 0-2.195-.983-2.195-2.195 0-1.211.983-2.193 2.195-2.194z" transform="translate(-696 -4476) translate(-175 130) translate(175 4286) translate(696 60)"/>
                    </g>
                </g>
            </g>
        </g>
    </g>
</svg>
