<svg xmlns="http://www.w3.org/2000/svg" xmlns:xlink="http://www.w3.org/1999/xlink" width="887" height="90" viewBox="0 0 887 90">
    <defs>
        <path id="gcx6ognr0a" d="M3.004 30.39C1.344 30.39 0 29.045 0 27.379V3.01C0 1.348 1.347 0 3.004 0h38.2c1.66 0 3.004 1.345 3.004 3.011v24.368c0 1.663-1.347 3.01-3.004 3.01h-38.2z"/>
    </defs>
    <g fill="none" fill-rule="evenodd">
        <g>
            <g>
                <g>
                    <g transform="translate(-276 -4075) translate(-175 130) translate(309 3925) translate(142 20)">
                        <ellipse cx="443.9" cy="51.429" fill="#FEE6E3" rx="31.993" ry="32.143"/>
                        <g transform="translate(421.505 35.357)">
                            <mask id="jqt7rcr8fb" fill="#fff">
                                <use xlink:href="#gcx6ognr0a"/>
                            </mask>
                            <use fill="#FF9E93" xlink:href="#gcx6ognr0a"/>
                            <path fill="#F66757" d="M.573.103h43.063c.958 0 1.736.777 1.736 1.736v.899c0 .52-.27 1.004-.712 1.279L22.528 17.76c-.302.187-.683.186-.984-.002l-22-13.74c-.44-.276-.707-.758-.707-1.278v-.9C-1.163.88-.386.102.573.102z" mask="url(#jqt7rcr8fb)"/>
                        </g>
                        <g fill="#FEE6E3" transform="translate(60.786)">
                            <path d="M468.855 30.078L460.342 34.409 464.672 25.895 460.381 17.402 468.875 21.693 477.388 17.362 473.058 25.876 477.348 34.369z" transform="rotate(-45 468.865 25.886)"/>
                            <path d="M683.207 30.078L674.693 34.409 679.024 25.895 674.733 17.402 683.226 21.693 691.74 17.362 687.409 25.876 691.7 34.369z" transform="rotate(-45 683.217 25.886)"/>
                            <path d="M294.356 36.928L284.707 41.836 289.615 32.187 284.752 22.562 294.378 27.425 304.027 22.517 299.119 32.165 303.981 41.791z" transform="rotate(-45 294.367 32.176)"/>
                            <path d="M85.603 42.553L75.954 47.461 80.862 37.812 76 28.187 85.625 33.05 95.274 28.142 90.366 37.79 95.228 47.416z" transform="rotate(-45 85.614 37.801)"/>
                            <path d="M462.543 84.931L459.422 86.518 461.009 83.397 459.436 80.283 462.55 81.856 465.672 80.268 464.084 83.39 465.657 86.504z" transform="rotate(-45 462.547 83.393)"/>
                            <path d="M684.893 84.931L681.771 86.518 683.359 83.397 681.786 80.283 684.9 81.856 688.022 80.268 686.434 83.39 688.007 86.504z" transform="rotate(-45 684.897 83.393)"/>
                            <path d="M593.713 72.877L590.592 74.465 592.18 71.343 590.607 68.229 593.721 69.802 596.842 68.214 595.254 71.336 596.828 74.45z" transform="rotate(-45 593.717 71.34)"/>
                            <path d="M197.803 70.466L194.681 72.054 196.269 68.932 194.696 65.818 197.81 67.392 200.932 65.804 199.344 68.925 200.917 72.039z" transform="rotate(-45 197.806 68.929)"/>
                            <path d="M550.522 40.256L545.981 42.566 548.291 38.025 546.002 33.495 550.532 35.784 555.073 33.474 552.763 38.015 555.051 42.544z" transform="rotate(-45 550.527 38.02)"/>
                            <path d="M772.871 40.256L768.331 42.566 770.641 38.025 768.352 33.495 772.882 35.784 777.422 33.474 775.113 38.015 777.401 42.544z" transform="rotate(-45 772.877 38.02)"/>
                            <path d="M229.794 33.024L225.253 35.333 227.563 30.793 225.275 26.263 229.804 28.552 234.345 26.242 232.035 30.783 234.324 35.312z" transform="rotate(-45 229.8 30.788)"/>
                            <path d="M9.044 33.024L4.503 35.333 6.813 30.793 4.524 26.263 9.054 28.552 13.595 26.242 11.285 30.783 13.573 35.312z" transform="rotate(-45 9.049 30.788)"/>
                            <ellipse cx="492.289" cy="53.438" rx="2" ry="2.009"/>
                            <ellipse cx="714.639" cy="53.438" rx="2" ry="2.009"/>
                            <ellipse cx="649.853" cy="64.688" rx="2" ry="2.009"/>
                            <ellipse cx="601.864" cy="24.509" rx="2" ry="2.009"/>
                            <ellipse cx="529.881" cy="79.955" rx="2" ry="2.009"/>
                            <ellipse cx="752.23" cy="79.955" rx="2" ry="2.009"/>
                            <ellipse cx="398.71" cy="2.009" rx="2" ry="2.009"/>
                            <ellipse cx="324.327" cy="83.17" rx="2" ry="2.009"/>
                            <ellipse cx="269.139" cy="68.705" rx="2" ry="2.009"/>
                            <ellipse cx="48.389" cy="68.705" rx="2" ry="2.009"/>
                            <ellipse cx="172.361" cy="23.705" rx="2" ry="2.009"/>
                            <ellipse cx="123.572" cy="59.063" rx="2" ry="2.009"/>
                        </g>
                    </g>
                </g>
            </g>
        </g>
    </g>
</svg>
