<svg xmlns="http://www.w3.org/2000/svg" xmlns:xlink="http://www.w3.org/1999/xlink" width="160" height="37" viewBox="0 0 160 37">
    <defs>
        <path id="9wi6gc2laa" d="M0 0L9.168 0 9.168 10.874 0 10.874z"/>
        <path id="zq7k9wue5c" d="M0 0L36.198 0 36.198 36.12 0 36.12z"/>
    </defs>
    <g fill="none" fill-rule="evenodd">
        <g>
            <g>
                <g>
                    <path fill="#161518" d="M48.33 20.203c-.334-.082-.64-.142-.92-.183-.28-.04-.54-.061-.78-.061-.734 0-1.309.137-1.725.41-.417.273-.625.65-.625 1.13 0 .43.133.756.4.982.266.225.65.338 1.15.338.46 0 .893-.074 1.3-.222.406-.148.806-.377 1.2-.687v-1.707zm2.419 2.14h.16c.36 0 .634.104.825.315.19.21.284.512.284.904 0 .428-.098.737-.295.925-.196.189-.521.283-.974.283h-.94c-.334 0-.582-.07-.745-.21-.163-.141-.298-.396-.405-.766-.553.407-1.14.717-1.76.931-.62.215-1.246.322-1.88.322-1.072 0-1.916-.296-2.529-.887s-.92-1.4-.92-2.428c0-1.108.397-1.969 1.19-2.582.793-.614 1.906-.92 3.34-.92.32 0 .66.018 1.02.055.36.037.763.096 1.21.177v-.21c0-.665-.146-1.171-.436-1.519-.29-.347-.718-.521-1.284-.521-.44 0-1.002.181-1.685.543-.684.362-1.185.543-1.505.543-.313 0-.566-.101-.76-.304-.193-.204-.29-.472-.29-.804 0-.599.395-1.073 1.185-1.425.79-.35 1.865-.526 3.224-.526 1.42 0 2.437.303 3.05.909.613.606.92 1.633.92 3.082v4.112zM58.22 16.888c-.653 0-1.195.272-1.625.815-.43.543-.645 1.232-.645 2.067 0 .858.214 1.558.64 2.101.427.543.97.815 1.63.815.66 0 1.205-.274 1.635-.82.43-.547.645-1.246.645-2.096 0-.827-.217-1.514-.65-2.061-.434-.547-.977-.82-1.63-.82zm4.689 5.454h.17c.36 0 .63.102.81.305.18.203.27.5.27.892 0 .436-.095.75-.285.943-.19.192-.512.288-.965.288h-1.53c-.193 0-.341-.043-.445-.128-.103-.085-.155-.201-.155-.349v-.776c-.326.495-.746.874-1.26 1.136-.513.263-1.09.394-1.729.394-1.306 0-2.4-.493-3.28-1.48-.88-.987-1.319-2.219-1.319-3.697 0-1.537.445-2.812 1.335-3.824.89-1.013 2.02-1.519 3.394-1.519.473 0 .935.087 1.385.26.45.174.861.42 1.235.738V12.72h-1.33c-.46 0-.787-.098-.98-.293-.193-.196-.29-.509-.29-.937 0-.436.097-.75.29-.942.193-.193.52-.289.98-.289h3.11c.226 0 .38.052.464.156.083.103.125.295.125.576v11.351zM70.2 16.888c-.653 0-1.194.272-1.624.815-.43.543-.645 1.232-.645 2.067 0 .858.213 1.558.64 2.101.426.543.97.815 1.63.815.66 0 1.204-.274 1.634-.82.43-.547.645-1.246.645-2.096 0-.827-.217-1.514-.65-2.061-.433-.547-.976-.82-1.63-.82zm4.69 5.454h.17c.36 0 .63.102.81.305.18.203.27.5.27.892 0 .436-.096.75-.286.943-.19.192-.511.288-.965.288h-1.53c-.193 0-.34-.043-.444-.128-.104-.085-.155-.201-.155-.349v-.776c-.327.495-.747.874-1.26 1.136-.513.263-1.09.394-1.73.394-1.306 0-2.399-.493-3.279-1.48-.88-.987-1.32-2.219-1.32-3.697 0-1.537.445-2.812 1.335-3.824.89-1.013 2.021-1.519 3.394-1.519.474 0 .935.087 1.385.26.45.174.862.42 1.235.738V12.72h-1.33c-.46 0-.786-.098-.98-.293-.193-.196-.29-.509-.29-.937 0-.436.097-.75.29-.942.194-.193.52-.289.98-.289h3.11c.226 0 .381.052.465.156.083.103.124.295.124.576v11.351zM82.57 9.517c.487 0 .81.103.97.31.16.207.24.702.24 1.485 0 .754-.071 1.222-.214 1.403-.144.18-.482.271-1.015.271-.52 0-.855-.085-1.005-.255-.15-.17-.225-.51-.225-1.02 0-.945.077-1.548.23-1.806.153-.259.493-.388 1.02-.388zm1.44 12.825h2.15c.46 0 .786.093.98.277.193.185.29.492.29.92 0 .436-.099.75-.295.943-.197.192-.522.288-.975.288H79.4c-.453 0-.778-.096-.975-.288-.196-.193-.294-.507-.294-.943 0-.428.095-.735.284-.92.19-.184.519-.277.985-.277h2.15v-5.387h-1.13c-.446 0-.766-.094-.96-.283-.193-.188-.29-.5-.29-.937 0-.436.094-.746.28-.93.187-.185.51-.278.97-.278h3.01c.186 0 .33.043.43.128.1.085.15.201.15.349v7.338zM97.56 15.126c.08-.288.206-.505.375-.649.17-.144.389-.216.655-.216.36 0 .617.12.77.36.153.24.23.656.23 1.247v1.818c0 .451-.083.784-.25.998-.167.215-.423.321-.77.321-.246 0-.453-.062-.62-.188-.166-.126-.343-.366-.53-.72-.266-.503-.616-.874-1.05-1.115-.433-.24-.963-.36-1.589-.36-.78 0-1.418.283-1.915.848-.496.566-.744 1.288-.744 2.167 0 .924.256 1.667.77 2.228.513.562 1.203.843 2.069.843.786 0 1.568-.242 2.345-.726.776-.484 1.25-.726 1.424-.726.247 0 .452.105.615.316.163.21.245.475.245.792 0 .695-.475 1.316-1.425 1.863-.95.546-2.078.82-3.384.82-1.613 0-2.924-.503-3.934-1.508-1.01-1.005-1.515-2.298-1.515-3.88 0-1.544.5-2.83 1.5-3.857 1-1.027 2.26-1.54 3.78-1.54.512 0 1.012.07 1.499.21.486.14.97.358 1.45.654M105.882 15.148h3.049c.46 0 .786.092.98.277.193.185.29.492.29.92 0 .436-.099.75-.295.942-.197.193-.522.289-.975.289h-3.05v2.837c0 .798.11 1.345.33 1.641.22.296.607.443 1.16.443.52 0 1.133-.166 1.84-.499.706-.332 1.18-.498 1.42-.498.273 0 .508.12.705.36.196.24.294.53.294.87 0 .57-.464 1.088-1.394 1.558-.93.469-1.985.703-3.165.703-.686 0-1.29-.103-1.81-.31-.52-.207-.93-.502-1.229-.887-.22-.295-.377-.65-.47-1.064-.093-.414-.14-1.105-.14-2.073V17.576h-.94c-.453 0-.775-.096-.965-.289-.19-.192-.284-.506-.284-.942 0-.436.093-.744.28-.926.186-.18.51-.271.97-.271h.94v-2.594c0-.51.094-.868.284-1.075.19-.207.505-.31.945-.31.44 0 .755.103.945.31.19.207.285.565.285 1.075v2.594zM118.512 9.517c.486 0 .81.103.97.31.16.207.24.702.24 1.485 0 .754-.072 1.222-.215 1.403-.144.18-.482.271-1.015.271-.52 0-.855-.085-1.005-.255-.15-.17-.225-.51-.225-1.02 0-.945.077-1.548.23-1.806.153-.259.493-.388 1.02-.388zm1.44 12.825h2.15c.46 0 .786.093.979.277.193.185.29.492.29.92 0 .436-.099.75-.295.943-.197.192-.522.288-.975.288h-6.758c-.454 0-.779-.096-.975-.288-.197-.193-.295-.507-.295-.943 0-.428.095-.735.285-.92.19-.184.518-.277.985-.277h2.15v-5.387h-1.13c-.447 0-.767-.094-.96-.283-.194-.188-.29-.5-.29-.937 0-.436.093-.746.28-.93.186-.185.51-.278.97-.278h3.009c.186 0 .33.043.43.128.1.085.15.201.15.349v7.338zM128.773 16.955l1.8 4.722 1.889-4.722h-.16c-.36 0-.635-.104-.825-.31-.19-.207-.285-.51-.285-.91 0-.436.095-.746.285-.93.19-.185.518-.278.985-.278h2.35c.466 0 .794.094.984.283.19.188.285.497.285.925 0 .4-.093.703-.28.91-.186.206-.46.31-.82.31h-.17l-2.969 6.994c-.22.503-.418.812-.595.926-.177.115-.448.172-.815.172-.666 0-1.116-.31-1.35-.931l-.06-.167-2.789-6.994h-.16c-.36 0-.635-.104-.825-.31-.19-.207-.285-.51-.285-.91 0-.436.097-.746.29-.93.194-.185.52-.278.98-.278h2.54c.46 0 .786.094.98.283.193.188.29.497.29.925 0 .4-.096.703-.286.91-.19.206-.461.31-.814.31h-.17zM145.182 18.573c-.113-.687-.405-1.22-.875-1.596-.47-.377-1.081-.565-1.834-.565-.727 0-1.312.179-1.755.537-.443.359-.752.9-.925 1.624h5.39zm-5.389 1.73c.173.82.508 1.433 1.005 1.84.497.406 1.158.61 1.985.61.826 0 1.643-.224 2.45-.671.806-.447 1.292-.671 1.459-.671.246 0 .448.102.605.305.156.203.235.464.235.781 0 .695-.464 1.294-1.39 1.796-.927.503-2.073.754-3.44.754-1.612 0-2.924-.503-3.934-1.508-1.01-1.005-1.514-2.298-1.514-3.88 0-1.574.505-2.863 1.514-3.868 1.01-1.005 2.322-1.508 3.935-1.508 1.44 0 2.632.471 3.579 1.414.946.942 1.42 2.097 1.42 3.464 0 .436-.095.735-.285.898-.19.162-.582.244-1.175.244h-6.449z" transform="translate(-135 -26) translate(135 26) translate(0 .072)"/>
                    <g transform="translate(-135 -26) translate(135 26) translate(0 .072) translate(149.934 14.195)">
                        <mask id="bybvlva04b" fill="#fff">
                            <use xlink:href="#9wi6gc2laa"/>
                        </mask>
                        <path fill="#161518" d="M1.92 10.42c-.174.148-.352.26-.535.338-.184.078-.372.116-.565.116-.287 0-.489-.085-.605-.254-.117-.17-.175-.488-.175-.954V8.192c0-.488.073-.833.22-1.036.147-.204.4-.305.76-.305.393 0 .713.21.96.632.146.229.27.399.37.51.326.325.706.568 1.14.731.433.163.926.244 1.479.244.48 0 .863-.104 1.15-.31.286-.207.43-.477.43-.81 0-.598-.77-1.012-2.31-1.241-.34-.045-.606-.085-.8-.122-1.16-.178-2.023-.527-2.59-1.048C.284 4.917 0 4.217 0 3.337 0 2.295.34 1.489 1.02.92 1.7.351 2.67.067 3.93.067c.432 0 .877.038 1.334.116.456.078.925.198 1.405.36.14-.184.288-.321.445-.41C7.27.044 7.445 0 7.638 0c.274 0 .482.094.625.283.144.188.215.47.215.848v1.363c0 .318-.073.564-.22.737-.146.174-.353.26-.62.26-.273 0-.741-.263-1.404-.792-.664-.528-1.328-.792-1.995-.792-.52 0-.923.094-1.21.282-.286.189-.43.45-.43.782 0 .517.6.864 1.8 1.042.347.044.62.081.82.11 1.506.245 2.541.609 3.104 1.093.563.484.845 1.202.845 2.156 0 1.116-.372 1.978-1.115 2.588-.743.61-1.798.914-3.164.914-.533 0-1.047-.038-1.54-.116-.493-.077-.97-.19-1.43-.338" mask="url(#bybvlva04b)"/>
                    </g>
                    <g transform="translate(-135 -26) translate(135 26) translate(0 .072)">
                        <mask id="54s57o00ad" fill="#fff">
                            <use xlink:href="#zq7k9wue5c"/>
                        </mask>
                        <path fill="#161518" d="M18.099 0c9.996 0 18.099 8.086 18.099 18.06 0 9.975-8.103 18.06-18.099 18.06S0 28.036 0 18.06C0 8.086 8.103 0 18.099 0zm.165 4.531h-5.547c-1.246 0-2.009.112-2.288.335-.279.223-.418.63-.418 1.22 0 .56.158.96.477 1.197.318.238.872.356 1.664.356h2.842L8.376 27.086h-.37c-.779 0-1.304.108-1.577.323-.272.216-.409.605-.409 1.166 0 .59.137.996.409 1.22.273.223.824.334 1.655.334h5.12c.946 0 1.56-.111 1.839-.335.279-.223.418-.629.418-1.22 0-.546-.155-.93-.467-1.154-.311-.223-.895-.334-1.752-.334h-1.888l1.674-5.137h9.889l1.888 5.137h-1.81c-.844 0-1.418.111-1.723.334-.305.223-.457.608-.457 1.155 0 .59.139.996.418 1.22.28.222.912.334 1.898.334h5.295c.675 0 1.135-.112 1.382-.335.246-.223.37-.629.37-1.22 0-.56-.13-.949-.39-1.165-.26-.215-.74-.323-1.44-.323h-.33L20.405 5.999c-.208-.561-.438-.946-.691-1.155-.253-.208-.737-.313-1.45-.313zm-.486 3.108l4.185 11.44h-7.962l3.777-11.44z" mask="url(#54s57o00ad)"/>
                    </g>
                </g>
            </g>
        </g>
    </g>
</svg>
