<svg xmlns="http://www.w3.org/2000/svg" xmlns:xlink="http://www.w3.org/1999/xlink" width="173" height="40" viewBox="0 0 173 40">
    <defs>
        <path id="36fse9j6xb" d="M0 0L9.913 0 9.913 11.756 0 11.756z"/>
        <path id="uxyt80qufd" d="M0 0L39.139 0 39.139 39.049 0 39.049z"/>
        <filter id="091i0xtsha">
            <feColorMatrix in="SourceGraphic" values="0 0 0 0 1.000000 0 0 0 0 1.000000 0 0 0 0 1.000000 0 0 0 1.000000 0"/>
        </filter>
    </defs>
    <g fill="none" fill-rule="evenodd">
        <g>
            <g filter="url(#091i0xtsha)" transform="translate(-635 -4877) translate(0 4845)">
                <g>
                    <g>
                        <path fill="#161518" d="M52.256 21.84c-.36-.087-.692-.153-.995-.197-.302-.044-.583-.066-.843-.066-.793 0-1.414.148-1.865.443-.45.296-.675.704-.675 1.223 0 .463.144.817.432 1.06.288.244.703.366 1.243.366.498 0 .966-.08 1.406-.24.44-.16.872-.407 1.297-.743v-1.845zm2.616 2.314h.173c.39 0 .686.113.892.341.205.228.308.554.308.977 0 .463-.106.797-.319 1-.213.204-.564.306-1.054.306h-1.016c-.36 0-.629-.076-.806-.228-.176-.151-.322-.427-.437-.826-.599.439-1.233.775-1.903 1.006-.67.232-1.348.348-2.032.348-1.16 0-2.072-.32-2.735-.959-.664-.64-.995-1.514-.995-2.624 0-1.199.429-2.13 1.287-2.793.857-.663 2.06-.994 3.61-.994.346 0 .714.02 1.103.06.389.04.825.103 1.308.191v-.227c0-.72-.157-1.267-.47-1.642-.314-.376-.777-.563-1.39-.563-.475 0-1.082.195-1.821.587-.739.391-1.281.587-1.627.587-.339 0-.613-.11-.822-.33-.209-.22-.313-.509-.313-.868 0-.648.427-1.16 1.281-1.54.854-.38 2.016-.57 3.486-.57 1.535 0 2.634.328 3.297.983.663.655.995 1.766.995 3.332v4.446zM62.95 18.258c-.706 0-1.291.293-1.756.88-.465.588-.698 1.333-.698 2.235 0 .927.231 1.684.692 2.271.461.588 1.049.881 1.762.881.714 0 1.303-.295 1.768-.887.465-.59.697-1.346.697-2.265 0-.894-.234-1.637-.703-2.229-.468-.59-1.055-.886-1.762-.886zm5.07 5.896h.184c.39 0 .681.11.876.33.194.22.292.54.292.964 0 .471-.103.81-.308 1.019-.206.207-.554.311-1.044.311h-1.654c-.209 0-.369-.046-.48-.138-.112-.091-.168-.217-.168-.377v-.84c-.353.536-.807.946-1.362 1.23-.555.283-1.179.425-1.87.425-1.413 0-2.595-.534-3.546-1.6-.952-1.067-1.427-2.399-1.427-3.997 0-1.661.48-3.04 1.443-4.134.962-1.095 2.185-1.642 3.67-1.642.512 0 1.01.094 1.497.282.487.187.932.453 1.335.797v-3.032h-1.437c-.498 0-.85-.106-1.06-.318-.209-.212-.313-.55-.313-1.013 0-.47.104-.81.313-1.018.21-.208.562-.312 1.06-.312h3.362c.245 0 .412.056.502.168.09.112.135.32.135.623v12.272zM75.904 18.258c-.706 0-1.292.293-1.757.88-.464.588-.697 1.333-.697 2.235 0 .927.23 1.684.692 2.271.461.588 1.049.881 1.762.881.714 0 1.303-.295 1.768-.887.464-.59.697-1.346.697-2.265 0-.894-.234-1.637-.703-2.229-.468-.59-1.056-.886-1.762-.886zm5.07 5.896h.184c.39 0 .681.11.876.33.194.22.291.54.291.964 0 .471-.102.81-.308 1.019-.205.207-.553.311-1.043.311H79.32c-.209 0-.37-.046-.48-.138-.113-.091-.168-.217-.168-.377v-.84c-.354.536-.808.946-1.363 1.23-.555.283-1.178.425-1.87.425-1.412 0-2.594-.534-3.545-1.6-.952-1.067-1.427-2.399-1.427-3.997 0-1.661.48-3.04 1.443-4.134.962-1.095 2.185-1.642 3.67-1.642.511 0 1.01.094 1.497.282.487.187.931.453 1.335.797v-3.032h-1.438c-.497 0-.85-.106-1.059-.318-.21-.212-.314-.55-.314-1.013 0-.47.105-.81.314-1.018.209-.208.562-.312 1.06-.312h3.361c.245 0 .413.056.503.168.09.112.135.32.135.623v12.272zM89.28 10.288c.526 0 .875.112 1.048.336.173.224.26.759.26 1.606 0 .815-.078 1.32-.233 1.516-.155.196-.52.293-1.097.293-.562 0-.924-.092-1.087-.275-.162-.184-.243-.552-.243-1.103 0-1.022.083-1.674.249-1.953.166-.28.533-.42 1.103-.42zm1.556 13.866h2.324c.498 0 .85.1 1.06.3.209.2.313.53.313.994 0 .471-.106.81-.319 1.019-.212.207-.564.311-1.054.311h-7.307c-.49 0-.842-.104-1.054-.311-.213-.208-.32-.548-.32-1.02 0-.462.103-.794.309-.994.205-.2.56-.3 1.065-.3h2.324V18.33h-1.222c-.483 0-.829-.101-1.037-.305-.21-.204-.314-.541-.314-1.013 0-.471.1-.807.303-1.006.201-.2.551-.3 1.048-.3h3.254c.202 0 .357.046.465.138.108.092.162.218.162.377v7.934zM105.487 16.352c.087-.311.222-.545.406-.701.183-.156.42-.234.708-.234.389 0 .666.13.832.39.166.26.249.709.249 1.348v1.965c0 .488-.09.847-.27 1.079-.18.232-.458.347-.833.347-.267 0-.49-.067-.67-.203-.18-.136-.371-.396-.573-.78-.288-.542-.667-.944-1.135-1.204-.469-.26-1.042-.39-1.719-.39-.843 0-1.533.307-2.07.918-.537.61-.806 1.392-.806 2.343 0 .998.278 1.801.833 2.408.555.608 1.3.911 2.238.911.85 0 1.695-.261 2.535-.785.84-.523 1.353-.785 1.54-.785.267 0 .488.114.665.342.176.227.265.513.265.857 0 .75-.514 1.422-1.54 2.013-1.028.591-2.248.887-3.66.887-1.744 0-3.162-.543-4.254-1.63-1.092-1.086-1.638-2.485-1.638-4.194 0-1.67.541-3.06 1.622-4.17 1.081-1.111 2.443-1.667 4.086-1.667.555 0 1.096.076 1.622.228.526.152 1.048.388 1.567.707M114.485 16.376h3.297c.497 0 .85.1 1.06.3.208.2.313.531.313.994 0 .472-.107.811-.32 1.019-.212.208-.563.312-1.053.312h-3.297v3.067c0 .863.118 1.455.356 1.774.238.32.656.48 1.254.48.562 0 1.225-.18 1.99-.54.763-.36 1.275-.54 1.534-.54.296 0 .55.13.763.39.212.26.318.574.318.941 0 .615-.502 1.177-1.508 1.684-1.005.507-2.146.76-3.421.76-.742 0-1.395-.111-1.957-.335-.562-.223-1.005-.543-1.33-.958-.237-.32-.407-.703-.507-1.151-.102-.447-.152-1.194-.152-2.24V19h-1.016c-.49 0-.838-.104-1.043-.312-.206-.208-.308-.547-.308-1.019 0-.471.1-.804.302-1 .202-.196.552-.294 1.049-.294h1.016v-2.804c0-.551.103-.939.308-1.163.206-.223.546-.335 1.022-.335.475 0 .816.112 1.021.335.206.224.309.612.309 1.163v2.804zM128.141 10.288c.526 0 .876.112 1.049.336.173.224.26.759.26 1.606 0 .815-.078 1.32-.233 1.516-.155.196-.521.293-1.098.293-.562 0-.924-.092-1.086-.275-.162-.184-.243-.552-.243-1.103 0-1.022.082-1.674.248-1.953.166-.28.534-.42 1.103-.42zm1.557 13.866h2.324c.497 0 .85.1 1.06.3.208.2.313.53.313.994 0 .471-.107.81-.32 1.019-.212.207-.563.311-1.053.311h-7.308c-.49 0-.841-.104-1.054-.311-.213-.208-.319-.548-.319-1.02 0-.462.103-.794.308-.994.206-.2.56-.3 1.065-.3h2.324V18.33h-1.221c-.483 0-.83-.101-1.038-.305-.21-.204-.314-.541-.314-1.013 0-.471.101-.807.303-1.006.202-.2.552-.3 1.049-.3h3.254c.201 0 .356.046.465.138.108.092.162.218.162.377v7.934zM139.235 18.33l1.946 5.105 2.043-5.106h-.173c-.389 0-.686-.111-.891-.335-.206-.224-.308-.551-.308-.983 0-.471.102-.807.308-1.006.205-.2.56-.3 1.064-.3h2.54c.505 0 .86.102 1.066.306.205.203.308.537.308 1 0 .432-.101.76-.303.983-.202.224-.497.335-.886.335h-.184l-3.21 7.562c-.239.544-.453.877-.644 1.001-.191.124-.485.186-.881.186-.72 0-1.207-.336-1.46-1.007l-.064-.18-3.016-7.562h-.173c-.39 0-.687-.111-.892-.335-.206-.224-.308-.551-.308-.983 0-.471.104-.807.313-1.006.21-.2.562-.3 1.06-.3h2.745c.498 0 .85.102 1.06.306.209.203.313.537.313 1 0 .432-.102.76-.308.983-.205.224-.499.335-.88.335h-.185zM156.978 20.08c-.122-.744-.438-1.32-.946-1.727-.508-.407-1.169-.61-1.983-.61-.786 0-1.418.193-1.898.58-.479.388-.812.973-1 1.756h5.827zm-5.827 1.869c.188.886.55 1.55 1.087 1.989.537.44 1.252.659 2.146.659.893 0 1.776-.241 2.648-.725.872-.483 1.398-.725 1.579-.725.266 0 .484.11.654.33.169.22.254.501.254.844 0 .751-.501 1.399-1.503 1.942-1.002.543-2.241.815-3.719.815-1.744 0-3.162-.543-4.254-1.63-1.091-1.087-1.637-2.485-1.637-4.194 0-1.702.546-3.096 1.637-4.183 1.092-1.086 2.51-1.63 4.254-1.63 1.557 0 2.847.51 3.87 1.528 1.024 1.019 1.535 2.267 1.535 3.745 0 .472-.102.795-.308.971-.205.176-.629.264-1.27.264h-6.973z" transform="translate(635 32) translate(0 .078)"/>
                        <g transform="translate(635 32) translate(0 .078) translate(162.116 15.345)">
                            <mask id="axl86x3pqc" fill="#fff">
                                <use xlink:href="#36fse9j6xb"/>
                            </mask>
                            <path fill="#161518" d="M2.076 11.265c-.188.16-.38.282-.579.365-.198.084-.402.126-.61.126-.31 0-.529-.092-.655-.275-.126-.184-.189-.528-.189-1.031V8.856c0-.527.08-.9.238-1.12.159-.22.432-.33.822-.33.425 0 .77.228 1.037.683.159.248.292.432.4.551.353.352.764.616 1.233.791.468.176 1.001.264 1.6.264.519 0 .933-.112 1.243-.336.31-.223.465-.515.465-.874 0-.647-.833-1.095-2.497-1.343-.368-.047-.656-.091-.865-.131-1.254-.192-2.188-.57-2.8-1.133C.306 5.315 0 4.558 0 3.608 0 2.48.368 1.61 1.103.994S2.886.072 4.248.072c.469 0 .95.042 1.444.126.493.084 1 .214 1.518.39.152-.2.312-.348.482-.444C7.86.048 8.05 0 8.259 0c.296 0 .52.102.676.306.155.203.232.509.232.916v1.474c0 .344-.08.61-.238.797-.158.188-.382.282-.67.282-.296 0-.802-.286-1.519-.857-.717-.571-1.436-.857-2.156-.857-.563 0-.999.102-1.308.306-.31.204-.465.485-.465.845 0 .56.648.934 1.946 1.126.374.048.67.088.886.12 1.629.264 2.748.657 3.357 1.18.609.524.913 1.3.913 2.331 0 1.207-.402 2.14-1.205 2.799-.804.659-1.944.988-3.422.988-.576 0-1.131-.042-1.665-.126-.533-.083-1.048-.205-1.545-.365" mask="url(#axl86x3pqc)"/>
                        </g>
                        <g transform="translate(635 32) translate(0 .078)">
                            <mask id="zh3ugw4cje" fill="#fff">
                                <use xlink:href="#uxyt80qufd"/>
                            </mask>
                            <path fill="#161518" d="M19.57 0c10.808 0 19.57 8.741 19.57 19.525 0 10.783-8.762 19.524-19.57 19.524S0 30.308 0 19.525C0 8.74 8.762 0 19.57 0zm.178 4.899H13.75c-1.347 0-2.172.12-2.473.362-.302.24-.453.68-.453 1.318 0 .607.172 1.038.516 1.295.344.256.943.385 1.8.385h3.072L9.056 29.282h-.4c-.842 0-1.41.116-1.705.35-.294.233-.442.653-.442 1.26 0 .638.148 1.077.442 1.318.295.241.891.362 1.79.362h5.535c1.024 0 1.687-.12 1.989-.362.302-.241.453-.68.453-1.318 0-.591-.169-1.007-.506-1.249-.336-.24-.968-.361-1.894-.361h-2.041l1.81-5.553h10.692l2.042 5.553h-1.958c-.912 0-1.533.12-1.863.361-.33.242-.494.658-.494 1.249 0 .638.15 1.077.452 1.318.302.241.986.362 2.053.362h5.724c.73 0 1.228-.12 1.495-.362.266-.241.4-.68.4-1.318 0-.607-.14-1.027-.421-1.26-.281-.234-.8-.35-1.557-.35h-.358l-8.23-22.796c-.225-.607-.474-1.023-.747-1.249-.274-.225-.797-.338-1.569-.338zm-.526 3.36l4.526 12.366h-8.609L19.222 8.26z" mask="url(#zh3ugw4cje)"/>
                        </g>
                    </g>
                </g>
            </g>
        </g>
    </g>
</svg>
