<svg xmlns="http://www.w3.org/2000/svg" width="28" height="28" viewBox="0 0 28 28">
    <defs>
        <filter id="passus6uha">
            <feColorMatrix in="SourceGraphic" values="0 0 0 0 1.000000 0 0 0 0 1.000000 0 0 0 0 1.000000 0 0 0 1.000000 0"/>
        </filter>
    </defs>
    <g fill="none" fill-rule="evenodd">
        <g>
            <g>
                <g filter="url(#passus6uha)" transform="translate(-1225 -5039) translate(0 4845) translate(1173 194)">
                    <g>
                        <path fill="#000" d="M14 0c7.732 0 14 6.268 14 14s-6.268 14-14 14S0 21.732 0 14 6.268 0 14 0zm.707 6.534h-1.414c-1.396.002-1.679.013-2.371.044-.795.037-1.338.163-1.812.347-.491.191-.908.446-1.323.861-.415.415-.67.832-.862 1.323-.185.475-.31 1.018-.347 1.812-.009.208-.017.379-.023.554l-.005.178c-.01.365-.015.802-.016 1.639v1.416c.002 1.395.013 1.678.044 2.37.037.795.163 1.338.347 1.812.191.491.446.908.862 1.323.414.415.831.671 1.322.862.475.184 1.018.31 1.812.347l.379.016.263.01c.385.012.822.017 1.729.018h1.416c1.395-.002 1.677-.013 2.37-.044.795-.037 1.338-.163 1.813-.347.491-.19.907-.447 1.322-.862.415-.415.67-.832.862-1.323.183-.474.31-1.017.347-1.812.03-.692.042-.975.044-2.37v-1.416c-.001-.907-.007-1.344-.019-1.729l-.006-.175c-.005-.146-.012-.294-.02-.467-.037-.795-.163-1.337-.346-1.812-.192-.491-.447-.908-.862-1.323-.415-.415-.83-.67-1.322-.86-.476-.185-1.02-.311-1.814-.348-.693-.031-.975-.042-2.37-.044zM13.33 7.877v.002h1.563c.8.002 1.188.007 1.55.02l.218.007.356.016c.728.033 1.123.155 1.386.257.349.135.597.297.858.558.262.262.423.51.559.86.102.262.224.657.257 1.385.031.685.041.953.043 2.321v1.39c-.001.822-.005 1.247-.015 1.603l-.005.174c-.006.171-.014.34-.023.545-.033.728-.155 1.123-.257 1.386-.135.348-.297.596-.559.857-.261.262-.51.423-.858.559-.263.102-.658.224-1.386.257-.685.031-.953.041-2.322.043h-1.39c-.89-.001-1.316-.006-1.692-.017l-.258-.01-.372-.016c-.728-.033-1.124-.155-1.387-.257-.348-.136-.597-.297-.859-.559-.261-.261-.423-.51-.558-.858-.103-.263-.224-.658-.258-1.386l-.012-.285-.007-.174c-.014-.371-.02-.727-.022-1.484v-2.15c.002-.756.008-1.11.022-1.482l.007-.174.012-.285c.034-.728.155-1.123.258-1.386.135-.349.297-.597.558-.859.262-.261.51-.423.859-.559.263-.102.659-.224 1.387-.257.602-.027.882-.038 1.875-.041l.472-.001zm.67 2.289c-2.118 0-3.835 1.716-3.835 3.834 0 2.118 1.717 3.834 3.835 3.834 2.117 0 3.834-1.716 3.834-3.834 0-2.118-1.717-3.834-3.834-3.834zm0 1.345c1.374 0 2.489 1.114 2.489 2.49 0 1.374-1.115 2.488-2.49 2.488-1.374 0-2.488-1.114-2.488-2.489 0-1.375 1.114-2.489 2.489-2.489zm3.985-2.393c-.494 0-.896.402-.896.896 0 .495.402.896.896.896.495 0 .896-.4.896-.896 0-.494-.4-.896-.896-.896z" transform="translate(52)"/>
                    </g>
                </g>
            </g>
        </g>
    </g>
</svg>
